<svg xmlns="http://www.w3.org/2000/svg">
    <symbol id="N" viewBox="0 0 45 42" fill="none">
        <path d="M40.996 0V35.2038L10.5459 0H-0.00106812V41.8666H3.11577V6.66604L33.5659 41.8699H44.1128V0.00325225H40.996V0Z" fill="#E1FD2C"/>
    </symbol>
    <symbol id="O" viewBox="0 0 46 47" fill="none">
        <path d="M39.9354 6.31453C37.219 3.57861 33.7994 1.63348 30.0479 0.690273C26.3061 -0.265601 22.3769 -0.228126 18.6542 0.798991C14.7954 1.85089 11.2876 3.90229 8.49055 6.74297L6.87356 8.35021C3.98905 11.1435 1.90139 14.6453 0.822824 18.4993C-0.228514 22.1861 -0.273177 26.084 0.693502 29.7935C1.70195 33.5084 3.67522 36.8955 6.41605 39.616C9.15687 42.3365 12.5692 44.2952 16.3118 45.2962C20.0516 46.2687 23.9854 46.2311 27.7057 45.1874C31.589 44.1171 35.1175 42.0452 37.9327 39.1825L39.552 37.5753C42.4132 34.7984 44.4792 31.3164 45.5381 27.486C46.5743 23.7911 46.6121 19.8906 45.6477 16.1766C44.6872 12.4329 42.7116 9.02203 39.9354 6.31453ZM38.5934 21.5627C36.9951 24.6258 34.9169 27.4177 32.4363 29.8338L30.1357 32.1174C27.6951 34.5859 24.8764 36.6555 21.7841 38.2495C19.245 39.6309 16.4276 40.433 13.5368 40.5973C12.4429 40.7246 11.3341 40.6044 10.2937 40.2456C9.25333 39.8869 8.30832 39.299 7.52953 38.5259C6.75074 37.7529 6.1584 36.8149 5.79699 35.7822C5.43557 34.7496 5.31447 33.6491 5.44272 32.5633C5.60944 29.6941 6.41748 26.8977 7.8081 24.377C9.41523 21.3084 11.5006 18.5111 13.9871 16.0885L16.2877 13.8049C18.7198 11.3426 21.5302 9.279 24.614 7.69123C27.1481 6.32306 29.9561 5.52906 32.8362 5.36627C33.9304 5.23855 35.0396 5.35855 36.0805 5.71725C37.1213 6.07595 38.0668 6.66401 38.8459 7.43732C39.6249 8.21064 40.2174 9.14908 40.5788 10.1822C40.9402 11.2154 41.0611 12.3163 40.9324 13.4025C40.7684 16.2592 39.9692 19.0444 38.5923 21.5583L38.5934 21.5627Z" fill="#E1FD2C"/>
    </symbol>
    <symbol id="D" viewBox="0 0 45 42" fill="none">
        <path d="M38.9308 10.0804C37.1177 6.94481 34.4567 4.37541 31.2488 2.66297C27.8289 0.854876 24.002 -0.0604104 20.1277 0.00309299H0V41.8697H20.1277C24.0112 41.9456 27.8563 41.0938 31.3387 39.386C34.5462 37.7769 37.1991 35.2575 38.9604 32.148C40.8543 28.7146 41.7992 24.8451 41.6993 20.9321C41.7694 17.1343 40.8135 13.3873 38.9308 10.0804ZM37.3631 26.59C35.2116 28.4992 32.66 29.9105 29.8925 30.7223C26.5803 31.765 23.1224 32.2789 19.6479 32.2447H16.3929C12.9088 32.2778 9.44132 31.764 6.11881 30.7223C5.09399 30.3918 4.09136 29.997 3.11698 29.5403V12.2803C4.09171 11.8241 5.09428 11.429 6.11881 11.0972C9.44131 10.0555 12.9088 9.54168 16.3929 9.57478H19.6479C23.1224 9.54062 26.5803 10.0545 29.8925 11.0972C32.6593 11.9108 35.2104 13.322 37.3631 15.2295C38.2272 15.9073 38.9255 16.7706 39.4056 17.7545C39.8857 18.7385 40.1351 19.8176 40.1351 20.9108C40.1351 22.0041 39.8857 23.0832 39.4056 24.0671C38.9255 25.0511 38.2272 25.9143 37.3631 26.5922V26.59Z" fill="#E1FD2C"/>
    </symbol>
    <symbol id="Z" viewBox="0 0 45 42" fill="none">
        <path d="M2.10901 10.4721H31.7099L0 38.8544V41.8123H43.449V31.3445H12.5464L44.1719 3.03289V0H2.10794L2.10901 10.4721Z" fill="#E1FD2C"/>
    </symbol>
    <symbol id="pill" viewBox="0 0 128 113" fill="none">
        <path d="M92.5446 72.8043C86.0401 75.7016 79.3501 78.1621 72.519 80.1695C65.6285 82.2309 58.6112 83.8404 51.5115 84.9879C45.5383 85.9856 39.4929 86.4878 33.4371 86.4895C30.9849 86.4787 28.5356 86.3173 26.1032 86.0059C24.1118 85.7586 22.148 85.3249 20.2375 84.7106C18.7564 84.2481 17.3598 83.5486 16.102 82.6392C15.1318 81.9429 14.3748 80.9897 13.916 79.8864C13.8938 79.8294 13.873 79.7719 13.8534 79.7138L5.63751 58.5649L27.8611 51.1997L28.9272 61.6384C32.5868 59.4779 36.3675 57.5298 40.2505 55.8037C46.755 52.9069 53.4448 50.4465 60.2756 48.4388C67.1664 46.3772 74.1842 44.7674 81.2842 43.6197C82.776 43.3822 84.24 43.1721 85.6763 42.9894L82.6352 40.5296L109.102 24.6002L118.818 48.5481L118.81 48.553C118.834 48.6079 118.856 48.6633 118.878 48.7192C119.274 49.7927 119.333 50.9619 119.046 52.0699C118.678 53.4585 118.049 54.7645 117.194 55.9181C116.093 57.4343 114.831 58.8273 113.431 60.0726C111.701 61.6272 109.866 63.0613 107.94 64.3648C107.463 64.6921 106.974 65.0183 106.474 65.3434C102.027 68.1811 97.3703 70.6753 92.5446 72.8043Z" fill="#F6A0A9" stroke="#16774A" stroke-width="1.99975"/>
        <path d="M61.6909 55.0732C54.6118 57.3759 47.6243 59.2322 40.9223 60.5907C34.4576 61.9011 28.5318 62.6951 23.3095 62.9507C18.1229 63.2044 13.9043 62.9149 10.7709 62.0901C9.22759 61.6839 7.97764 61.1498 7.05576 60.5025C6.16633 59.878 5.57961 59.1427 5.31189 58.317C5.04396 57.4906 5.08764 56.5493 5.44173 55.5191C5.80871 54.4514 6.50792 53.2818 7.51997 52.0428C9.5746 49.5276 12.8225 46.8061 17.1734 43.9539C21.5543 41.0821 26.8208 38.232 32.8265 35.4827C39.0531 32.6323 45.8025 30.0173 52.8871 27.7104L52.9476 27.6907C60.0267 25.388 67.0142 23.5317 73.7162 22.1732C80.1809 20.8628 86.1067 20.0688 91.329 19.8133C96.5155 19.5595 100.734 19.849 103.868 20.6738C105.411 21.08 106.661 21.6142 107.583 22.2614C108.472 22.8859 109.059 23.6212 109.327 24.4469C109.595 25.2733 109.551 26.2146 109.197 27.2448C108.83 28.3125 108.131 29.4821 107.118 30.7211C105.064 33.2364 101.816 35.9579 97.4651 38.81C93.0841 41.6818 87.8177 44.532 81.812 47.2812C75.5854 50.1316 68.836 52.7466 61.7514 55.0535L61.6909 55.0732Z" fill="#F6A0A9"/>
        <path d="M53.131 28.3577L53.1006 28.3676C46.0409 30.6664 39.3163 33.2717 33.1136 36.1112C27.1393 38.8461 21.9035 41.6793 17.5515 44.5321C13.3201 47.3059 10.036 50.0544 8.05433 52.4803C6.77772 54.0432 5.37958 56.2874 5.96846 58.1037C6.55672 59.918 9.00018 60.9095 10.9464 61.4218C13.9684 62.2173 18.2318 62.5073 23.2758 62.2604C28.4635 62.0066 34.3545 61.217 40.7853 59.9134C47.4615 58.5602 54.4234 56.7106 61.4776 54.416L61.5075 54.4062L61.5379 54.3963C68.5976 52.0976 75.3222 49.4923 81.5249 46.6528C87.4991 43.9179 92.7349 41.0847 97.0869 38.2319C101.318 35.4581 104.602 32.7096 106.584 30.2836C107.861 28.7208 109.259 26.4766 108.67 24.6603C108.082 22.8459 105.638 21.8544 103.692 21.3422C100.67 20.5467 96.4066 20.2567 91.3627 20.5035C86.175 20.7574 80.2839 21.547 73.8531 22.8505C67.1769 24.2038 60.215 26.0534 53.1609 28.348L53.131 28.3577ZM52.7343 27.0335C81.7957 17.5804 107.419 16.3254 109.983 24.2336C112.549 32.1471 91.0504 46.2399 61.9649 55.7107C61.9454 55.7171 61.9237 55.7241 61.9042 55.7305C32.8427 65.1836 7.21931 66.4386 4.6553 58.5304C2.08956 50.6169 23.5881 36.5241 52.6736 27.0533C52.6931 27.0469 52.7148 27.0399 52.7343 27.0335Z" fill="#16774A"/>
    </symbol>
    <symbol id="pill-prime" viewBox="0 0 128 113" fill="none">
        <path d="M92.5446 72.8043C86.0401 75.7016 79.3501 78.1621 72.519 80.1695C65.6285 82.2309 58.6112 83.8404 51.5115 84.9879C45.5383 85.9856 39.4929 86.4878 33.4371 86.4895C30.9849 86.4787 28.5356 86.3173 26.1032 86.0059C24.1118 85.7586 22.148 85.3249 20.2375 84.7106C18.7564 84.2481 17.3598 83.5486 16.102 82.6392C15.1318 81.9429 14.3748 80.9897 13.916 79.8864C13.8938 79.8294 13.873 79.7719 13.8534 79.7138L5.63751 58.5649L27.8611 51.1997L28.9272 61.6384C32.5868 59.4779 36.3675 57.5298 40.2505 55.8037C46.755 52.9069 53.4448 50.4465 60.2756 48.4388C67.1664 46.3772 74.1842 44.7674 81.2842 43.6197C82.776 43.3822 84.24 43.1721 85.6763 42.9894L82.6352 40.5296L109.102 24.6002L118.818 48.5481L118.81 48.553C118.834 48.6079 118.856 48.6633 118.878 48.7192C119.274 49.7927 119.333 50.9619 119.046 52.0699C118.678 53.4585 118.049 54.7645 117.194 55.9181C116.093 57.4343 114.831 58.8273 113.431 60.0726C111.701 61.6272 109.866 63.0613 107.94 64.3648C107.463 64.6921 106.974 65.0183 106.474 65.3434C102.027 68.1811 97.3703 70.6753 92.5446 72.8043Z" fill="#BBD4D0" stroke="#4F2479" stroke-width="1.99975"/>
        <path d="M61.6909 55.0732C54.6118 57.3759 47.6243 59.2322 40.9223 60.5907C34.4576 61.9011 28.5318 62.6951 23.3095 62.9507C18.1229 63.2044 13.9043 62.9149 10.7709 62.0901C9.22759 61.6839 7.97764 61.1498 7.05576 60.5025C6.16633 59.878 5.57961 59.1427 5.31189 58.317C5.04396 57.4906 5.08764 56.5493 5.44173 55.5191C5.80871 54.4514 6.50792 53.2818 7.51997 52.0428C9.5746 49.5276 12.8225 46.8061 17.1734 43.9539C21.5543 41.0821 26.8208 38.232 32.8265 35.4827C39.0531 32.6323 45.8025 30.0173 52.8871 27.7104L52.9476 27.6907C60.0267 25.388 67.0142 23.5317 73.7162 22.1732C80.1809 20.8628 86.1067 20.0688 91.329 19.8133C96.5155 19.5595 100.734 19.849 103.868 20.6738C105.411 21.08 106.661 21.6142 107.583 22.2614C108.472 22.8859 109.059 23.6212 109.327 24.4469C109.595 25.2733 109.551 26.2146 109.197 27.2448C108.83 28.3125 108.131 29.4821 107.118 30.7211C105.064 33.2364 101.816 35.9579 97.4651 38.81C93.0841 41.6818 87.8177 44.532 81.812 47.2812C75.5854 50.1316 68.836 52.7466 61.7514 55.0535L61.6909 55.0732Z" fill="#BBD4D0"/>
        <path d="M53.131 28.3577L53.1006 28.3676C46.0409 30.6664 39.3163 33.2717 33.1136 36.1112C27.1393 38.8461 21.9035 41.6793 17.5515 44.5321C13.3201 47.3059 10.036 50.0544 8.05433 52.4803C6.77772 54.0432 5.37958 56.2874 5.96846 58.1037C6.55672 59.918 9.00018 60.9095 10.9464 61.4218C13.9684 62.2173 18.2318 62.5073 23.2758 62.2604C28.4635 62.0066 34.3545 61.217 40.7853 59.9134C47.4615 58.5602 54.4234 56.7106 61.4776 54.416L61.5075 54.4062L61.5379 54.3963C68.5976 52.0976 75.3222 49.4923 81.5249 46.6528C87.4991 43.9179 92.7349 41.0847 97.0869 38.2319C101.318 35.4581 104.602 32.7096 106.584 30.2836C107.861 28.7208 109.259 26.4766 108.67 24.6603C108.082 22.8459 105.638 21.8544 103.692 21.3422C100.67 20.5467 96.4066 20.2567 91.3627 20.5035C86.175 20.7574 80.2839 21.547 73.8531 22.8505C67.1769 24.2038 60.215 26.0534 53.1609 28.348L53.131 28.3577ZM52.7343 27.0335C81.7957 17.5804 107.419 16.3254 109.983 24.2336C112.549 32.1471 91.0504 46.2399 61.9649 55.7107C61.9454 55.7171 61.9237 55.7241 61.9042 55.7305C32.8427 65.1836 7.21931 66.4386 4.6553 58.5304C2.08956 50.6169 23.5881 36.5241 52.6736 27.0533C52.6931 27.0469 52.7148 27.0399 52.7343 27.0335Z" fill="#4F2479"/>
    </symbol>
    <symbol id="pill-smiley" viewBox="0 0 54 44" fill="none">
        <path d="M43.4049 31.4102C41.1611 32.0064 38.8758 32.431 36.5672 32.6808C33.7063 33.0073 30.829 33.1766 27.9491 33.1878C25.0038 33.2105 22.0597 33.0787 19.1281 32.7933C16.6422 32.5612 14.1736 32.1668 11.7391 31.612C10.671 31.3603 9.6905 31.0821 8.8249 30.7854C8.04752 30.5265 7.29144 30.2088 6.56223 29.8354C6.01368 29.5615 5.50578 29.2118 5.05432 28.7968C4.73123 28.5111 4.49838 28.1373 4.3839 27.7213C4.31224 27.3959 4.35591 27.0559 4.50731 26.7591L4.40687 16.0947L37.0701 14.6946L38.7883 17.8403L40.4396 17.2542L48.0134 15.7781L48.9472 27.2726C48.9657 27.3265 48.9817 27.3817 48.9942 27.4372C49.0735 27.8084 49.0067 28.1952 48.8083 28.5185C48.5414 28.94 48.1874 29.2993 47.7702 29.5724C47.1968 29.9618 46.5833 30.2887 45.9406 30.5486C45.6821 30.6573 45.4087 30.7634 45.1205 30.8674C44.5943 31.0577 44.0203 31.2392 43.4049 31.4102Z" fill="#D3FF04"/>
        <path d="M43.4049 31.4102C41.1611 32.0064 38.8758 32.431 36.5672 32.6808C33.7063 33.0073 30.829 33.1766 27.9491 33.1878C25.0038 33.2105 22.0597 33.0787 19.1281 32.7933C16.6422 32.5612 14.1736 32.1668 11.7391 31.612C10.671 31.3603 9.6905 31.0821 8.8249 30.7854C8.04752 30.5265 7.29144 30.2088 6.56223 29.8354C6.01368 29.5615 5.50578 29.2118 5.05432 28.7968C4.73123 28.5111 4.49838 28.1373 4.3839 27.7213C4.31224 27.3959 4.35591 27.0559 4.50731 26.7591L4.40687 16.0947L37.0701 14.6946L38.7883 17.8403L40.4396 17.2542L48.0134 15.7781L48.9472 27.2726C48.9657 27.3265 48.9817 27.3817 48.9942 27.4372C49.0735 27.8084 49.0067 28.1952 48.8083 28.5185C48.5414 28.94 48.1874 29.2993 47.7702 29.5724C47.1968 29.9618 46.5833 30.2887 45.9406 30.5486C45.6821 30.6573 45.4087 30.7634 45.1205 30.8674C44.5943 31.0577 44.0203 31.2392 43.4049 31.4102Z" stroke="#16774A" stroke-width="2.5" stroke-linecap="round"/>
        <path d="M32.558 19.5288C30.7367 19.6829 28.8462 19.787 26.9398 19.8372C22.6667 19.9495 18.4535 19.7541 14.7565 19.2728C11.182 18.8075 8.2409 18.0981 6.25118 17.2221L6.25014 17.222L6.24893 17.2214C5.25004 16.7862 4.55646 16.1972 4.48217 15.7206C4.47153 15.6539 4.4402 15.4511 4.68318 15.1417C5.03626 14.6926 6.14158 13.806 9.58097 12.9126C12.2132 12.2287 15.6373 11.6956 19.4829 11.3701C21.3916 11.2085 23.3887 11.099 25.4187 11.0458C28.3837 10.9679 31.3018 11.0256 34.091 11.2169C36.7775 11.4011 39.2188 11.7003 41.3478 12.1062C43.4262 12.5024 45.1489 12.9973 46.3301 13.5379C47.381 14.0189 48.0242 14.55 48.0933 14.9944C48.1036 15.0603 48.1343 15.2599 47.8883 15.5733C47.5217 16.0403 46.3707 16.9639 42.7877 17.9087C40.0312 18.6353 36.4939 19.1958 32.558 19.5288Z" fill="#D3FF04"/>
        <path d="M19.5338 11.9562C15.2672 12.3175 11.5883 12.9252 8.89536 13.7125C7.60293 14.0902 6.59264 14.4937 5.89354 14.912C5.27881 15.2799 5.08909 15.558 5.06578 15.6375C5.0935 15.7445 5.40558 16.2129 6.48456 16.6828L6.48681 16.6835L6.48878 16.6848C8.42785 17.5384 11.3131 18.2318 14.8324 18.69C18.4999 19.1673 22.6809 19.3607 26.9241 19.249C28.8192 19.1993 30.6979 19.096 32.508 18.9429C36.7994 18.5796 40.6957 17.9266 43.4793 17.105C44.8262 16.7077 45.8823 16.2841 46.6191 15.8467C47.3504 15.4123 47.4881 15.1274 47.5088 15.0739C47.4662 14.9492 47.1199 14.5317 45.9943 14.0311C44.837 13.5164 43.1538 13.0433 41.126 12.6625C39.0257 12.2684 36.621 11.9775 33.9785 11.7985C31.2297 11.6122 28.3548 11.5576 25.4348 11.6342C23.4164 11.6874 21.4313 11.7956 19.5338 11.9562ZM19.4336 10.784C21.3272 10.6237 23.3283 10.5128 25.4033 10.4582C37.6154 10.1367 48.2465 12.1513 48.6751 14.9039C49.0354 17.2157 42.0811 19.3127 32.6082 20.1151C30.8045 20.2679 26.956 20.4249 26.956 20.4249C26.956 20.4249 10.1062 19.5629 6.01467 17.761C4.86672 17.2609 4.01744 16.5571 3.90135 15.8113C3.54548 13.5269 10.1837 11.5675 19.4336 10.784Z" fill="#1B951D"/>
    </symbol>
    <symbol id="star" viewBox="0 0 80 80">
        <path d="M55.5727 63.9203C41.3753 47.0997 33.4846 49.1054 15.7241 55.5104C28.763 41.8666 32.5648 33.6767 24.1221 15.703C36.5609 31.0437 46.2075 30.5128 63.9733 24.1086C50.9301 37.7531 45.5357 43.9337 55.5727 63.9203Z"/>
        <path d="M55.5727 63.9203C41.3753 47.0997 33.4846 49.1054 15.7241 55.5104C28.763 41.8666 32.5648 33.6767 24.1221 15.703C36.5609 31.0437 46.2075 30.5128 63.9733 24.1086C50.9301 37.7531 45.5357 43.9337 55.5727 63.9203Z"/>
    </symbol>
    <symbol id="play" viewBox="0 0 96 110">
        <path d="M96 55L0 110V0L96 55Z" fill="#E1FD2C"/>
    </symbol>
    <symbol id="bristle" viewBox="0 0 69 43" fill="none">
        <path d="M66.7937 20.1987L58.0616 40.5785" stroke="#16774A" stroke-width="3.001" stroke-linecap="round"/>
        <path d="M46.8308 13.5991L38.0987 33.9789" stroke="#16774A" stroke-width="3.001" stroke-linecap="round"/>
        <path d="M26.8688 7L18.1368 27.3797" stroke="#16774A" stroke-width="3.001" stroke-linecap="round"/>
        <path d="M56.812 16.8989L48.0799 37.2787" stroke="#16774A" stroke-width="3.001" stroke-linecap="round"/>
        <path d="M36.8501 10.2993L28.118 30.679" stroke="#16774A" stroke-width="3.001" stroke-linecap="round"/>
        <path d="M16.8881 3.69971L8.15607 24.0795" stroke="#16774A" stroke-width="3.001" stroke-linecap="round"/>
        <path d="M63.4668 19.0991L54.7347 39.4789" stroke="#16774A" stroke-width="3.001" stroke-linecap="round"/>
        <path d="M43.5048 12.4995L34.7728 32.8792" stroke="#16774A" stroke-width="3.001" stroke-linecap="round"/>
        <path d="M23.542 5.8999L14.8099 26.2796" stroke="#16774A" stroke-width="3.001" stroke-linecap="round"/>
        <path d="M53.4855 15.7998L44.7535 36.1795" stroke="#16774A" stroke-width="3.001" stroke-linecap="round"/>
        <path d="M33.5232 9.2002L24.7911 29.5799" stroke="#16774A" stroke-width="3.001" stroke-linecap="round"/>
        <path d="M13.5598 2.60059L4.8277 22.9803" stroke="#16774A" stroke-width="3.001" stroke-linecap="round"/>
        <path d="M60.1393 17.9985L51.4073 38.3783" stroke="#16774A" stroke-width="3.001" stroke-linecap="round"/>
        <path d="M40.1765 11.3984L31.4445 31.7781" stroke="#16774A" stroke-width="3.001" stroke-linecap="round"/>
        <path d="M20.2137 4.7998L11.4816 25.1796" stroke="#16774A" stroke-width="3.001" stroke-linecap="round"/>
        <path d="M50.1587 14.7002L41.4266 35.0799" stroke="#16774A" stroke-width="3.001" stroke-linecap="round"/>
        <path d="M30.1953 8.09961L21.4632 28.4793" stroke="#16774A" stroke-width="3.001" stroke-linecap="round"/>
        <path d="M10.2334 1.50098L1.50085 21.8807" stroke="#16774A" stroke-width="3.001" stroke-linecap="round"/>
    </symbol>
    <symbol id="bubbles-l" viewBox="0 0 51 53" fill="none">
        <path d="M27.0284 1.5C38.9991 1.5 48.7183 11.2097 48.7183 23.1686C48.7183 35.1275 38.9991 44.8372 27.0284 44.8372C15.0577 44.8372 5.3385 35.1275 5.3385 23.1686C5.3385 11.2097 15.0577 1.5 27.0284 1.5Z" fill="white"/>
        <path d="M27.0284 1.5C38.9991 1.5 48.7183 11.2097 48.7183 23.1686C48.7183 35.1275 38.9991 44.8372 27.0284 44.8372C15.0578 44.8372 5.3385 35.1275 5.3385 23.1686C5.3385 11.2097 15.0578 1.5 27.0284 1.5Z" stroke="#16774A" stroke-width="3"/>
        <path d="M18.2126 34.436C22.772 34.436 26.4739 38.1343 26.4739 42.6892C26.4739 47.2441 22.772 50.9424 18.2126 50.9424C13.6532 50.9424 9.95129 47.2441 9.95129 42.6892C9.95129 38.1343 13.6532 34.436 18.2126 34.436Z" fill="white"/>
        <path d="M18.2126 34.436C22.772 34.436 26.4739 38.1343 26.4739 42.6892C26.4739 47.2441 22.772 50.9424 18.2126 50.9424C13.6532 50.9424 9.95129 47.2441 9.95129 42.6892C9.95129 38.1343 13.6532 34.436 18.2126 34.436Z" stroke="#16774A" stroke-width="3"/>
        <path d="M41.5188 33.8696C45.6753 33.8696 49.0501 37.2411 49.0501 41.3935C49.0501 45.5459 45.6753 48.9173 41.5188 48.9173C37.3623 48.9173 33.9875 45.5459 33.9875 41.3935C33.9875 37.2411 37.3623 33.8696 41.5188 33.8696Z" fill="white"/>
        <path d="M41.5188 33.8696C45.6753 33.8696 49.0501 37.2411 49.0501 41.3935C49.0501 45.5459 45.6753 48.9173 41.5188 48.9173C37.3623 48.9173 33.9875 45.5459 33.9875 41.3935C33.9875 37.2411 37.3623 33.8696 41.5188 33.8696Z" stroke="#16774A" stroke-width="3"/>
        <path d="M7.61879 3.08008C10.9958 3.08008 13.7376 5.8192 13.7376 9.19283C13.7376 12.5665 10.9958 15.3056 7.61879 15.3056C4.24183 15.3056 1.5 12.5665 1.5 9.19283C1.5 5.8192 4.24183 3.08008 7.61879 3.08008Z" fill="white"/>
        <path d="M7.61879 3.08008C10.9958 3.08008 13.7376 5.8192 13.7376 9.19283C13.7376 12.5665 10.9958 15.3056 7.61879 15.3056C4.24183 15.3056 1.5 12.5665 1.5 9.19283C1.5 5.8192 4.24183 3.08008 7.61879 3.08008Z" stroke="#16774A" stroke-width="3"/>
        <path d="M44.4493 21.1436C45.5876 21.1436 46.5119 22.0669 46.5119 23.2041C46.5119 24.3414 45.5876 25.2647 44.4493 25.2647C43.3109 25.2647 42.3867 24.3414 42.3867 23.2041C42.3867 22.0669 43.3109 21.1436 44.4493 21.1436Z" fill="white"/>
        <path d="M44.4493 21.1436C45.5876 21.1436 46.5119 22.0669 46.5119 23.2041C46.5119 24.3414 45.5876 25.2647 44.4493 25.2647C43.3109 25.2647 42.3867 24.3414 42.3867 23.2041C42.3867 22.0669 43.3109 21.1436 44.4493 21.1436Z" stroke="#16774A" stroke-width="3"/>
        <path d="M12.7028 27.1689C14.6506 27.1689 16.232 28.7488 16.232 30.6947C16.232 32.6405 14.6506 34.2204 12.7028 34.2204C10.7551 34.2204 9.17365 32.6405 9.17365 30.6947C9.17365 28.7488 10.7551 27.1689 12.7028 27.1689Z" fill="white"/>
        <path d="M12.7028 27.1689C14.6506 27.1689 16.232 28.7488 16.232 30.6947C16.232 32.6405 14.6506 34.2204 12.7028 34.2204C10.7551 34.2204 9.17365 32.6405 9.17365 30.6947C9.17365 28.7488 10.7551 27.1689 12.7028 27.1689Z" stroke="#16774A" stroke-width="3"/>
    </symbol>
    <symbol id="bubbles-r" viewBox="0 0 53 48" fill="none">
        <path d="M10.9662 29.3842C10.132 19.8437 17.198 11.4334 26.7479 10.6C36.2978 9.76664 44.7164 16.8257 45.5506 26.3662C46.3848 35.9067 39.3188 44.317 29.7689 45.1504C20.2189 45.9838 11.8004 38.9247 10.9662 29.3842Z" fill="white"/>
        <path d="M11.7166 29.3184C10.9186 20.1916 17.6778 12.1468 26.8136 11.3496C35.9494 10.5523 44.0021 17.3049 44.8001 26.4317C45.5981 35.5585 38.8389 43.6033 29.7031 44.4006C20.5673 45.1978 12.5147 38.4453 11.7166 29.3184Z" stroke="#16774A" stroke-width="2.499"/>
        <path d="M0.774638 36.766C0.26756 30.9678 4.44072 25.8674 10.0958 25.374C15.751 24.8806 20.7457 29.181 21.2528 34.9791C21.7598 40.7773 17.5867 45.8778 11.9316 46.3711C6.27644 46.8645 1.28171 42.5642 0.774638 36.766Z" fill="white"/>
        <path d="M1.28919 36.7211C0.80691 31.207 4.77012 26.3567 10.1409 25.8881C15.5117 25.4195 20.256 29.5101 20.7383 35.0242C21.2206 40.5384 17.2573 45.3886 11.8865 45.8572C6.51575 46.3258 1.77147 42.2352 1.28919 36.7211Z" stroke="#16774A" stroke-width="2.499"/>
        <path d="M27.753 11.5876C27.2662 6.01812 31.3906 1.10839 36.9656 0.622C42.5405 0.135613 47.4551 4.25604 47.9419 9.82549C48.4288 15.3949 44.3043 20.3047 38.7294 20.7911C33.1545 21.2775 28.2399 17.157 27.753 11.5876Z" fill="white"/>
        <path d="M28.4177 11.5294C27.9629 6.32634 31.8156 1.74033 37.0238 1.28594C42.2319 0.831553 46.8224 4.68052 47.2773 9.88358C47.7321 15.0866 43.8794 19.6727 38.6712 20.127C33.463 20.5814 28.8725 16.7325 28.4177 11.5294Z" stroke="#16774A" stroke-width="2.499"/>
        <path d="M34.7761 29.5483C34.3711 24.9156 37.8022 20.8317 42.4395 20.427C47.0769 20.0223 51.1648 23.4501 51.5699 28.0828C51.975 32.7156 48.5438 36.7995 43.9065 37.2042C39.2692 37.6089 35.1812 34.1811 34.7761 29.5483Z" fill="white"/>
        <path d="M35.1406 29.5167C34.7531 25.0849 38.0352 21.1784 42.4714 20.7913C46.9077 20.4042 50.8179 23.6831 51.2054 28.115C51.593 32.5469 48.3108 36.4533 43.8746 36.8404C39.4383 37.2276 35.5281 33.9486 35.1406 29.5167Z" stroke="#16774A" stroke-width="2.499"/>
        <path d="M17.5058 15.7474C17.4426 15.0245 17.9629 14.3886 18.668 14.3271C19.3731 14.2656 19.9958 14.8017 20.0591 15.5247C20.1223 16.2476 19.602 16.8835 18.8969 16.945C18.1918 17.0065 17.569 16.4704 17.5058 15.7474Z" fill="white"/>
        <path d="M17.57 15.742C17.5098 15.0544 18.004 14.4497 18.6736 14.3913C19.3433 14.3329 19.9348 14.8429 19.9949 15.5304C20.0551 16.2179 19.5609 16.8227 18.8913 16.8811C18.2216 16.9395 17.6301 16.4295 17.57 15.742Z" stroke="#16774A" stroke-width="2.499"/>
        <path d="M26.3535 43.1674C26.1965 41.3719 27.5262 39.789 29.3235 39.6322C31.1208 39.4754 32.7053 40.8038 32.8622 42.5993C33.0192 44.3948 31.6895 45.9777 29.8922 46.1345C28.0949 46.2913 26.5104 44.9629 26.3535 43.1674Z" fill="white"/>
        <path d="M26.5678 43.1486C26.4212 41.4712 27.6632 39.9927 29.3423 39.8462C31.0213 39.6997 32.5013 40.9406 32.6479 42.618C32.7945 44.2954 31.5525 45.7739 29.8734 45.9204C28.1944 46.0669 26.7144 44.826 26.5678 43.1486Z" stroke="#16774A" stroke-width="2.499"/>
    </symbol>
    <symbol id="language" viewBox="0 0 82 100" fill="none">
        <path d="M41.4559 100.047C38.7223 100.047 35.9886 99.4716 33.3303 98.3377C30.7261 97.2266 28.161 95.5659 25.7066 93.4012C23.2841 91.2651 20.946 88.6178 18.7561 85.5336C16.5804 82.4689 14.5332 78.9473 12.672 75.0668C10.8075 71.1796 9.11441 66.9011 7.63976 62.3497C6.14957 57.7503 4.86891 52.8328 3.83449 47.7332C1.6809 37.1166 0.588562 25.8378 0.588562 14.2094C0.588562 9.64663 0.761356 5.06861 1.10177 0.594238H81.8101C82.1505 5.06861 82.3233 9.64615 82.3233 14.2094C82.3233 25.8378 81.231 37.1166 79.0774 47.7332C78.043 52.8328 76.7628 57.7508 75.2726 62.3497C73.798 66.9011 72.1048 71.1796 70.2403 75.0668C68.3791 78.9478 66.332 82.4689 64.1562 85.5336C61.9664 88.6178 59.6278 91.2651 57.2053 93.4012C54.7509 95.5659 52.1862 97.2266 49.5821 98.3377C46.9237 99.4716 44.1896 100.047 41.4559 100.047Z" fill="#F6A0A9"/>
        <path d="M41.4559 99.4527C44.1105 99.4527 46.7674 98.8936 49.3528 97.7906C51.899 96.7042 54.4109 95.0768 56.8183 92.9539C59.2064 90.8477 61.5144 88.2347 63.6779 85.1876C65.8338 82.1505 67.8641 78.6584 69.7107 74.8078C71.5634 70.9448 73.2466 66.6911 74.7133 62.1649C76.1964 57.5868 77.4709 52.6912 78.5011 47.614C80.6467 37.0364 81.7348 25.7979 81.7348 14.2095C81.7348 9.84781 81.5766 5.4728 81.2645 1.1886H1.64792C1.33575 5.47327 1.17708 9.84781 1.17708 14.2095C1.17708 25.7979 2.26518 37.0364 4.41124 47.614C5.44142 52.6912 6.71502 57.5873 8.19862 62.1649C9.66527 66.6911 11.3485 70.9444 13.2017 74.8078C15.0483 78.6579 17.0781 82.1505 19.2345 85.1876C21.398 88.2347 23.7055 90.8477 26.0936 92.9539C28.501 95.0768 31.0129 96.7042 33.5591 97.7906C36.1445 98.8936 38.8014 99.4527 41.4559 99.4527ZM41.4559 100.641C38.6432 100.641 35.8323 100.051 33.101 98.8855C30.4394 97.7502 27.8216 96.0552 25.3195 93.8492C22.8632 91.6831 20.494 89.0021 18.2778 85.8803C16.0827 82.7885 14.0181 79.237 12.1423 75.326C10.2665 71.4146 8.56305 67.1109 7.07992 62.5343C5.58267 57.9135 4.29683 52.9741 3.2577 47.8527C1.0961 37.1971 0 25.8778 0 14.2095C0 9.44463 0.187389 4.6636 0.557466 0H82.3544C82.7245 4.66693 82.9119 9.44748 82.9119 14.2095C82.9119 25.8778 81.8158 37.1971 79.6542 47.8527C78.6151 52.9741 77.3292 57.9139 75.832 62.5343C74.3488 67.1109 72.6458 71.4146 70.77 75.326C68.8942 79.237 66.8296 82.7885 64.6346 85.8803C62.4184 89.0021 60.0492 91.6831 57.5928 93.8492C55.0908 96.0552 52.4725 97.7502 49.8109 98.8855C47.0796 100.051 44.2687 100.641 41.4559 100.641Z" fill="#16774A"/>
    </symbol>

    <symbol id="language-shadow" viewBox="0 0 55 90">
        <path d="M54.0668 69.4814C46.0626 73.4447 45.4896 74.1288 39.3551 73.6063C7.58469 70.9049 0.757133 0 0.757133 0C0.786796 6.3885 -5.11887 71.0099 15.5884 85.1866C38.0938 100.595 54.0668 69.4814 54.0668 69.4814Z" fill="#16774A"/>
    </symbol>
    <symbol id="arrow" viewBox="0 0 27 24">
        <path d="M17.5322 22.08L23.5862 13.1946H0V10.6236H23.4598L17.531 1.9218L18.8228 0L26.9995 12L18.8228 24L17.5322 22.08Z"/>
    </symbol>
</svg>
